<svg version="1.0" xmlns="http://www.w3.org/2000/svg" width="512.000000pt" height="512.000000pt"
  viewBox="0 0 512.000000 512.000000" preserveAspectRatio="xMidYMid meet">

  <g transform="translate(0.000000,512.000000) scale(0.100000,-0.100000)" fill="#000000" stroke="none">
    <path d="M495 4706 c-94 -42 -137 -169 -50 -247 44 -51 75 -59 247 -59 82 0
150 -2 150 -4 0 -3 111 -555 246 -1228 219 -1094 249 -1231 280 -1299 60 -130
188 -230 332 -260 37 -8 399 -11 1195 -11 1247 0 1211 -1 1321 58 80 43 161
129 201 213 31 67 50 157 196 914 89 462 162 865 162 895 0 122 -76 242 -185
290 l-55 1 -1645 3 -1645 26 -48 245 c-27 138 -58 266 -71 293 -30 64 -85 118
-154 151 -53 25 -65 26 -246 29 -144 1 -197 -1 -220 -12z" />
    <path d="M1961 1264 c-253 -68 -410 -331 -346 -579 67 -256 329 -415 580 -350
237 62 393 291 358 529 -40 283 -322 473 -592 400z" />
    <path d="M3561 1264 c-253 -68 -410 -331 -346 -579 67 -256 329 -415 580 -350
237 62 393 291 358 529 -40 283 -322 473 -592 400z" />
  </g>
</svg>
